<svg xmlns="http://www.w3.org/2000/svg" width="640" height="420" viewBox="0 0 640 420" role="img" aria-label="Camera on tripod under the Milky Way">
  <defs>
    <linearGradient id="milky" x1="0" y1="0" x2="1" y2="1">
      <stop offset="0%" stop-color="#0b0f1f"/>
      <stop offset="50%" stop-color="#1f2b52"/>
      <stop offset="100%" stop-color="#0b0f1f"/>
    </linearGradient>
  </defs>
  <rect width="640" height="420" fill="#07080f"/>
  <rect width="640" height="420" fill="url(#milky)" opacity="0.85"/>
  <path d="M40 120 C200 60, 440 60, 600 140" stroke="#bfc8ff" stroke-width="16" opacity="0.18" fill="none"/>
  <path d="M60 150 C220 90, 460 90, 620 170" stroke="#e1e6ff" stroke-width="10" opacity="0.15" fill="none"/>
  <circle cx="120" cy="80" r="2" fill="#fff"/>
  <circle cx="210" cy="130" r="1.5" fill="#fff"/>
  <circle cx="320" cy="90" r="1.8" fill="#fff"/>
  <circle cx="430" cy="120" r="2.2" fill="#fff"/>
  <circle cx="520" cy="90" r="1.4" fill="#fff"/>
  <circle cx="580" cy="140" r="1.6" fill="#fff"/>
  <rect x="290" y="230" width="60" height="30" rx="4" fill="#1c233a"/>
  <rect x="308" y="215" width="24" height="18" rx="2" fill="#2d3554"/>
  <circle cx="320" cy="245" r="8" fill="#4f5a7f"/>
  <path d="M320 260 L270 360" stroke="#2a2f44" stroke-width="6"/>
  <path d="M320 260 L370 360" stroke="#2a2f44" stroke-width="6"/>
  <path d="M320 260 L320 370" stroke="#2a2f44" stroke-width="6"/>
  <rect x="0" y="360" width="640" height="60" fill="#0a0f1e"/>
</svg>
