<svg xmlns="http://www.w3.org/2000/svg" width="640" height="420" viewBox="0 0 640 420" role="img" aria-label="Star-filled sky over mountains">
  <defs>
    <linearGradient id="sky" x1="0" y1="0" x2="0" y2="1">
      <stop offset="0%" stop-color="#05060f"/>
      <stop offset="100%" stop-color="#1a1f3b"/>
    </linearGradient>
  </defs>
  <rect width="640" height="420" fill="url(#sky)"/>
  <circle cx="80" cy="70" r="2" fill="#fff"/>
  <circle cx="140" cy="120" r="1.5" fill="#fff"/>
  <circle cx="220" cy="60" r="2.2" fill="#fff"/>
  <circle cx="320" cy="95" r="1.8" fill="#fff"/>
  <circle cx="410" cy="50" r="2.4" fill="#fff"/>
  <circle cx="520" cy="110" r="1.7" fill="#fff"/>
  <circle cx="580" cy="70" r="2" fill="#fff"/>
  <circle cx="100" cy="200" r="1.4" fill="#fff"/>
  <circle cx="260" cy="180" r="1.6" fill="#fff"/>
  <circle cx="470" cy="190" r="1.9" fill="#fff"/>
  <circle cx="560" cy="210" r="1.3" fill="#fff"/>
  <path d="M0 330 L120 260 L220 310 L320 250 L420 320 L520 270 L640 330 L640 420 L0 420 Z" fill="#0f152b"/>
  <path d="M180 320 L280 240 L360 320 Z" fill="#121a33"/>
  <path d="M360 320 L450 260 L520 330 Z" fill="#121a33"/>
  <circle cx="500" cy="260" r="28" fill="#f3e9d1" opacity="0.12"/>
</svg>
